<svg width="396" height="415" viewBox="0 0 396 415" fill="none" xmlns="http://www.w3.org/2000/svg">
<path fill-rule="evenodd" clip-rule="evenodd" d="M362.995 380.243C328.038 417.427 266.551 419.849 216.552 409.615C169.418 399.968 139.236 358.1 102.579 326.94C65.6968 295.589 10.448 274.867 1.96635 227.21C-6.5015 179.63 36.7177 140.329 62.0421 99.1675C83.0323 65.0508 100.273 25.7529 136.469 8.59503C171.194 -7.86568 211.118 3.6544 248.917 10.5836C282.845 16.803 317.083 24.0376 343.257 46.5025C369.431 68.9669 385.925 100.558 393.067 134.303C400.079 167.441 386.811 199.266 382.7 232.887C376.535 283.311 397.79 343.232 362.995 380.243Z" fill="#F89999"/>
</svg>
