<svg width="291" height="211" viewBox="0 0 291 211" fill="none" xmlns="http://www.w3.org/2000/svg">
<g clip-path="url(#clip0_11_0)">
<path d="M184.873 157.645V208.336H57.8722C43.4022 208.336 31.6292 196.966 31.6292 182.991C31.6292 169.015 43.4022 157.645 57.8722 157.645H184.873Z" fill="#F2F2F2"/>
<path d="M187.993 207.946C187.993 208.463 187.787 208.959 187.421 209.325C187.056 209.69 186.56 209.896 186.043 209.896H55.6101C48.5261 209.896 41.7321 207.082 36.723 202.073C31.7138 197.064 28.8996 190.27 28.8996 183.186C28.8996 176.101 31.7138 169.308 36.723 164.298C41.7321 159.289 48.5261 156.475 55.6101 156.475H186.043C186.56 156.475 187.056 156.68 187.422 157.046C187.787 157.412 187.993 157.908 187.993 158.425C187.993 158.942 187.787 159.438 187.422 159.803C187.056 160.169 186.56 160.374 186.043 160.374H55.6101C49.5602 160.374 43.7581 162.778 39.4802 167.056C35.2023 171.334 32.799 177.136 32.799 183.186C32.799 189.235 35.2023 195.038 39.4802 199.315C43.7581 203.593 49.5602 205.997 55.6101 205.997H186.043C186.56 205.997 187.056 206.202 187.421 206.568C187.787 206.934 187.993 207.429 187.993 207.946Z" fill="#FF6363"/>
<path d="M184.873 169.343H48.3963C48.2929 169.343 48.1938 169.302 48.1206 169.229C48.0475 169.156 48.0064 169.056 48.0064 168.953C48.0064 168.85 48.0475 168.75 48.1206 168.677C48.1938 168.604 48.2929 168.563 48.3963 168.563H184.873C184.977 168.563 185.076 168.604 185.149 168.677C185.222 168.75 185.263 168.85 185.263 168.953C185.263 169.056 185.222 169.156 185.149 169.229C185.076 169.302 184.977 169.343 184.873 169.343Z" fill="#FF6363"/>
<path d="M184.873 178.701H48.3963C48.2929 178.701 48.1938 178.66 48.1206 178.587C48.0475 178.514 48.0064 178.415 48.0064 178.311C48.0064 178.208 48.0475 178.109 48.1206 178.036C48.1938 177.963 48.2929 177.921 48.3963 177.921H184.873C184.977 177.921 185.076 177.963 185.149 178.036C185.222 178.109 185.263 178.208 185.263 178.311C185.263 178.415 185.222 178.514 185.149 178.587C185.076 178.66 184.977 178.701 184.873 178.701Z" fill="#FF6363"/>
<path d="M184.873 188.06H48.3963C48.2929 188.06 48.1938 188.019 48.1206 187.946C48.0475 187.872 48.0064 187.773 48.0064 187.67C48.0064 187.566 48.0475 187.467 48.1206 187.394C48.1938 187.321 48.2929 187.28 48.3963 187.28H184.873C184.977 187.28 185.076 187.321 185.149 187.394C185.222 187.467 185.263 187.566 185.263 187.67C185.263 187.773 185.222 187.872 185.149 187.946C185.076 188.019 184.977 188.06 184.873 188.06Z" fill="#FF6363"/>
<path d="M184.873 197.418H48.3963C48.2929 197.418 48.1938 197.377 48.1206 197.304C48.0475 197.231 48.0064 197.132 48.0064 197.028C48.0064 196.925 48.0475 196.826 48.1206 196.752C48.1938 196.679 48.2929 196.638 48.3963 196.638H184.873C184.977 196.638 185.076 196.679 185.149 196.752C185.222 196.826 185.263 196.925 185.263 197.028C185.263 197.132 185.222 197.231 185.149 197.304C185.076 197.377 184.977 197.418 184.873 197.418Z" fill="#FF6363"/>
<path d="M283.026 167.187L251.222 206.659L152.328 126.976C141.061 117.897 139.027 101.657 147.796 90.7746C156.564 79.8923 172.866 78.425 184.133 87.5038L283.026 167.187Z" fill="#F2F2F2"/>
<path d="M253.895 208.313C253.571 208.715 253.1 208.972 252.586 209.028C252.072 209.083 251.557 208.932 251.154 208.608L149.588 126.771C144.072 122.327 140.547 115.873 139.79 108.829C139.032 101.786 141.103 94.73 145.548 89.2138C149.993 83.6976 156.447 80.1729 163.49 79.4152C170.534 78.6576 177.59 80.7289 183.106 85.1736L284.671 167.01C284.871 167.171 285.037 167.369 285.16 167.594C285.282 167.818 285.36 168.065 285.387 168.32C285.415 168.574 285.392 168.832 285.32 169.078C285.248 169.324 285.128 169.553 284.967 169.752C284.806 169.952 284.608 170.117 284.383 170.24C284.158 170.363 283.912 170.44 283.657 170.467C283.402 170.495 283.145 170.472 282.899 170.399C282.653 170.327 282.424 170.207 282.225 170.046L180.659 88.2099C178.327 86.329 175.647 84.9261 172.772 84.0813C169.897 83.2364 166.884 82.9662 163.905 83.2861C160.925 83.606 158.038 84.5097 155.409 85.9456C152.779 87.3815 150.457 89.3215 148.577 91.6547C146.697 93.9879 145.296 96.6686 144.452 99.5437C143.608 102.419 143.339 105.432 143.66 108.411C143.981 111.39 144.886 114.277 146.323 116.906C147.76 119.536 149.701 121.856 152.035 123.735L253.6 205.571C254.003 205.896 254.26 206.367 254.315 206.881C254.371 207.395 254.22 207.91 253.895 208.313Z" fill="#FF6363"/>
<path d="M275.687 176.296L169.415 90.6674C169.375 90.6353 169.342 90.5956 169.317 90.5507C169.293 90.5058 169.277 90.4564 169.272 90.4055C169.266 90.3546 169.271 90.3031 169.285 90.254C169.3 90.2048 169.324 90.159 169.356 90.1192C169.388 90.0793 169.428 90.0461 169.473 90.0216C169.518 89.997 169.567 89.9816 169.618 89.9761C169.669 89.9706 169.72 89.9752 169.769 89.9897C169.819 90.0041 169.864 90.028 169.904 90.0602L276.176 175.689C276.216 175.721 276.249 175.76 276.274 175.805C276.299 175.85 276.314 175.9 276.32 175.951C276.325 176.002 276.321 176.053 276.306 176.102C276.292 176.151 276.268 176.197 276.236 176.237C276.203 176.277 276.164 176.31 276.119 176.335C276.074 176.359 276.024 176.375 275.973 176.38C275.922 176.386 275.871 176.381 275.822 176.367C275.773 176.352 275.727 176.328 275.687 176.296V176.296Z" fill="#FF6363"/>
<path d="M269.815 183.583L163.543 97.9547C163.463 97.8897 163.412 97.7955 163.401 97.6928C163.39 97.59 163.42 97.4871 163.485 97.4067C163.55 97.3262 163.644 97.2748 163.746 97.2637C163.849 97.2525 163.952 97.2827 164.033 97.3474L270.305 182.976C270.344 183.008 270.378 183.048 270.402 183.093C270.427 183.138 270.442 183.187 270.448 183.238C270.453 183.289 270.449 183.34 270.434 183.39C270.42 183.439 270.396 183.485 270.364 183.524C270.332 183.564 270.292 183.598 270.247 183.622C270.202 183.647 270.153 183.662 270.102 183.668C270.051 183.673 269.999 183.668 269.95 183.654C269.901 183.639 269.855 183.615 269.815 183.583Z" fill="#FF6363"/>
<path d="M263.944 190.87L157.672 105.242C157.591 105.177 157.54 105.083 157.529 104.98C157.518 104.877 157.548 104.774 157.613 104.694C157.678 104.613 157.772 104.562 157.875 104.551C157.977 104.539 158.08 104.57 158.161 104.635L264.433 190.263C264.473 190.295 264.506 190.335 264.53 190.38C264.555 190.425 264.57 190.474 264.576 190.525C264.581 190.576 264.577 190.627 264.562 190.677C264.548 190.726 264.524 190.771 264.492 190.811C264.46 190.851 264.42 190.884 264.375 190.909C264.33 190.933 264.281 190.949 264.23 190.954C264.179 190.96 264.127 190.955 264.078 190.941C264.029 190.926 263.983 190.902 263.944 190.87V190.87Z" fill="#FF6363"/>
<path d="M258.072 198.158L151.8 112.529C151.76 112.497 151.727 112.457 151.702 112.412C151.678 112.367 151.662 112.318 151.657 112.267C151.651 112.216 151.656 112.165 151.67 112.116C151.685 112.067 151.709 112.021 151.741 111.981C151.773 111.941 151.813 111.908 151.858 111.883C151.903 111.859 151.952 111.843 152.003 111.838C152.054 111.832 152.105 111.837 152.154 111.851C152.204 111.866 152.249 111.89 152.289 111.922L258.561 197.55C258.601 197.582 258.634 197.622 258.659 197.667C258.684 197.712 258.699 197.761 258.705 197.812C258.71 197.863 258.706 197.915 258.691 197.964C258.677 198.013 258.653 198.059 258.621 198.099C258.588 198.139 258.549 198.172 258.504 198.197C258.459 198.221 258.409 198.237 258.358 198.242C258.307 198.247 258.256 198.243 258.207 198.228C258.158 198.214 258.112 198.19 258.072 198.158Z" fill="#FF6363"/>
<path d="M289.721 210.286H0.389934C0.286517 210.286 0.187336 210.245 0.114209 210.172C0.0410819 210.099 0 209.999 0 209.896C0 209.793 0.0410819 209.693 0.114209 209.62C0.187336 209.547 0.286517 209.506 0.389934 209.506H289.721C289.824 209.506 289.924 209.547 289.997 209.62C290.07 209.693 290.111 209.793 290.111 209.896C290.111 209.999 290.07 210.099 289.997 210.172C289.924 210.245 289.824 210.286 289.721 210.286Z" fill="#FF6363"/>
<path d="M131.829 152.317L127.372 152.316L125.251 135.122L131.831 135.123L131.829 152.317Z" fill="#FAC8C8"/>
<path d="M124.187 151.043H132.784V156.456H118.774C118.774 155.745 118.914 155.041 119.186 154.384C119.458 153.728 119.857 153.131 120.36 152.628C120.862 152.126 121.459 151.727 122.116 151.455C122.772 151.183 123.476 151.043 124.187 151.043Z" fill="#2F2E41"/>
<path d="M86.2869 152.317L81.8292 152.316L79.7092 135.122L86.2885 135.123L86.2869 152.317Z" fill="#FAC8C8"/>
<path d="M78.645 151.043H87.2422V156.456H73.2319C73.2319 155.745 73.3719 155.041 73.644 154.384C73.916 153.728 74.3147 153.131 74.8174 152.628C75.32 152.126 75.9168 151.727 76.5735 151.455C77.2302 151.183 77.9341 151.043 78.645 151.043Z" fill="#2F2E41"/>
<path d="M101.177 24.7737V22.824C101.177 19.4888 102.501 16.2902 104.86 13.9319C107.218 11.5735 110.417 10.2486 113.752 10.2486H113.752C117.087 10.2486 120.286 11.5735 122.644 13.9319C125.002 16.2902 126.327 19.4888 126.327 22.824V24.7737C126.327 27.1782 125.372 29.4841 123.672 31.1843C121.972 32.8845 119.666 33.8397 117.261 33.8397H110.243C109.052 33.8397 107.873 33.6052 106.773 33.1496C105.673 32.694 104.674 32.0262 103.832 31.1843C102.99 30.3425 102.322 29.343 101.867 28.2431C101.411 27.1432 101.177 25.9643 101.177 24.7737Z" fill="#2F2E41"/>
<path d="M113.752 34.5105C119.041 34.5105 123.329 30.2227 123.329 24.9334C123.329 19.644 119.041 15.3562 113.752 15.3562C108.463 15.3562 104.175 19.644 104.175 24.9334C104.175 30.2227 108.463 34.5105 113.752 34.5105Z" fill="#FAC8C8"/>
<path d="M61.6582 57.8489C62.0468 57.4819 62.5112 57.2046 63.0186 57.0365C63.526 56.8684 64.0641 56.8136 64.595 56.8759C65.1259 56.9383 65.6367 57.1163 66.0913 57.3974C66.546 57.6785 66.9335 58.0559 67.2265 58.503L75.4364 56.95L77.597 61.7089L65.9722 63.7392C65.1886 64.1817 64.2698 64.3213 63.39 64.1317C62.5103 63.942 61.7307 63.4363 61.1989 62.7102C60.6671 61.9842 60.4202 61.0883 60.5048 60.1923C60.5895 59.2963 60.9998 58.4625 61.6582 57.8489V57.8489Z" fill="#FAC8C8"/>
<path d="M106.285 40.5419L106.393 40.7046L92.9299 49.5734L70.213 56.8275C69.9119 56.9242 69.6536 57.1224 69.4821 57.3881C69.3106 57.6539 69.2365 57.9709 69.2725 58.2852L69.7681 62.5536C69.79 62.7425 69.8512 62.9248 69.9478 63.0886C70.0443 63.2525 70.174 63.3944 70.3286 63.5052C70.4832 63.616 70.6592 63.6933 70.8454 63.7322C71.0315 63.771 71.2238 63.7705 71.4098 63.7306L92.7897 59.1478C93.8244 58.9273 94.8028 58.4966 95.6641 57.8823L110.789 47.1213C111.337 46.7291 111.775 46.2017 112.059 45.5903C112.343 44.9789 112.464 44.3044 112.41 43.6324C112.355 42.9595 112.125 42.3125 111.744 41.7553C111.363 41.1981 110.843 40.7497 110.236 40.4543C109.628 40.1589 108.955 40.0266 108.281 40.0705C107.607 40.1144 106.956 40.3329 106.393 40.7046L106.285 40.5419Z" fill="#FF6363"/>
<path d="M127.451 147.437C127.109 147.438 126.774 147.338 126.488 147.151C126.201 146.964 125.975 146.697 125.838 146.384L105.401 95.8873C105.354 95.7778 105.274 95.6855 105.172 95.6229C105.07 95.5602 104.952 95.5303 104.832 95.537C104.713 95.5437 104.599 95.5868 104.505 95.6605C104.411 95.7341 104.341 95.8348 104.306 95.949L87.6333 145.109C87.5629 145.338 87.4465 145.55 87.2911 145.732C87.1358 145.914 86.9448 146.063 86.73 146.168C86.5152 146.274 86.2811 146.335 86.042 146.346C85.8029 146.358 85.564 146.321 85.3398 146.237L79.7488 144.14C79.4454 144.027 79.1791 143.833 78.9797 143.578C78.7803 143.323 78.6555 143.017 78.6192 142.696C76.1039 120.784 98.0379 65.4771 98.2598 64.9211L98.3212 64.7671L118.316 69.19L118.358 69.2353C126.335 77.9378 132.892 132.827 134.125 143.741C134.171 144.136 134.081 144.534 133.871 144.87C133.66 145.207 133.341 145.461 132.967 145.592L128.032 147.338C127.845 147.404 127.649 147.437 127.451 147.437Z" fill="#2F2E41"/>
<path d="M110.224 70.9702C105.379 70.9702 99.9784 70.0043 98.3159 66.0178L98.2776 65.9262L98.3293 65.8413C99.6415 63.6883 101.376 60.0155 100.444 59.3261C98.6074 57.9683 97.7163 55.7348 97.7954 52.6873C97.9672 46.0717 102.475 40.1982 109.012 38.0716H109.012C110.837 37.4876 112.694 37.0095 114.574 36.6396C115.944 36.3631 117.359 36.3935 118.716 36.7287C120.074 37.0639 121.34 37.6955 122.424 38.5783C123.522 39.4668 124.41 40.5874 125.023 41.8597C125.636 43.1319 125.96 44.5242 125.971 45.9365C126.04 53.0064 124.951 62.8532 119.377 69.6134C119.115 69.9271 118.752 70.1385 118.35 70.2105C115.668 70.6956 112.949 70.9498 110.224 70.9702Z" fill="#FF6363"/>
<path d="M108.422 70.7055C108.685 69.7598 109.311 68.9563 110.164 68.4698C111.017 67.9832 112.027 67.8528 112.975 68.1069C113.169 68.161 113.358 68.2309 113.54 68.316L119.774 62.6429L124.109 65.5636L115.194 73.4523C114.792 74.1781 114.158 74.7484 113.394 75.0725C112.63 75.3966 111.78 75.4558 110.978 75.2408C110.511 75.113 110.074 74.8939 109.692 74.5962C109.311 74.2985 108.992 73.9281 108.754 73.5063C108.516 73.0846 108.364 72.6199 108.307 72.1392C108.25 71.6584 108.289 71.1711 108.422 70.7055Z" fill="#FAC8C8"/>
<path d="M118.786 70.7775C118.382 70.7778 117.99 70.6379 117.677 70.3817L115.218 68.3728C115.014 68.2053 114.849 67.9937 114.738 67.7537C114.626 67.5137 114.57 67.2516 114.574 66.987C114.578 66.7224 114.642 66.4621 114.761 66.2257C114.88 65.9893 115.051 65.7828 115.261 65.6217L125.571 57.714C125.694 57.6198 125.774 57.4812 125.795 57.3283C125.815 57.1754 125.775 57.0205 125.682 56.8972L119.318 48.4839C118.579 47.5097 118.208 46.3053 118.271 45.0839C118.335 43.8625 118.828 42.703 119.664 41.8104C120.545 40.8593 121.751 40.2741 123.043 40.1707C124.335 40.0674 125.619 40.4535 126.639 41.2526L126.68 41.295L133.325 50.8103C134.043 51.3738 134.622 52.0957 135.015 52.9197C135.409 53.7437 135.607 54.6475 135.593 55.5605C135.579 56.4736 135.355 57.3711 134.937 58.183C134.519 58.995 133.919 59.6993 133.184 60.2411L119.831 70.4335C119.528 70.6569 119.162 70.7775 118.786 70.7775Z" fill="#FF6363"/>
<path d="M105.269 22.2391V17.4873L113.752 13.783L121.841 17.4873V22.2391C121.841 22.446 121.759 22.6443 121.612 22.7906C121.466 22.9368 121.268 23.019 121.061 23.019H106.049C105.842 23.019 105.643 22.9368 105.497 22.7906C105.351 22.6443 105.269 22.446 105.269 22.2391Z" fill="#2F2E41"/>
<path d="M113.362 10.879C112.115 6.88668 114.735 2.31126 118.607 0.73099C122.48 -0.849284 127.113 0.255376 130.381 2.86623C133.649 5.47708 135.676 9.38764 136.75 13.43C137.825 17.4724 138.029 21.6876 138.227 25.8655C142.985 26.7395 146.222 32.383 144.573 36.9312C142.925 41.4794 136.824 43.739 132.611 41.3617C128.398 38.9845 127.177 32.5942 130.218 28.8317C131.657 27.0514 132.461 24.8419 132.502 22.5532C132.543 20.2645 131.82 18.0275 130.446 16.1963C129.073 14.3652 127.128 13.0447 124.919 12.4439C122.71 11.8431 120.364 11.9965 118.252 12.8796C115.907 13.8603 112.965 11.3123 113.362 10.879Z" fill="#2F2E41"/>
<path d="M59.8994 39.4156C54.2027 39.3782 48.5772 38.1462 43.3864 35.799C43.0774 35.6613 42.8151 35.4367 42.6315 35.1526C42.4479 34.8684 42.3509 34.537 42.3524 34.1987V19.9981C42.3529 19.5329 42.5379 19.0869 42.8669 18.7579C43.1958 18.429 43.6418 18.244 44.1071 18.2434H75.6917C76.1569 18.244 76.603 18.429 76.9319 18.758C77.2609 19.0869 77.4459 19.5329 77.4464 19.9981V34.1988C77.4478 34.537 77.3508 34.8684 77.1672 35.1526C76.9836 35.4367 76.7214 35.6613 76.4124 35.799C71.2216 38.1462 65.5961 39.3782 59.8994 39.4156Z" fill="#FF6363"/>
<path d="M59.8951 27.9114C59.6609 27.9116 59.4291 27.865 59.2132 27.7743L34.167 17.2073C33.844 17.071 33.5692 16.8411 33.3781 16.5473C33.187 16.2534 33.0883 15.909 33.0947 15.5585C33.1011 15.208 33.2124 14.8675 33.4141 14.5808C33.6159 14.2941 33.8989 14.0745 34.2267 13.9502L59.2732 4.44835C59.6766 4.2946 60.1227 4.29555 60.5254 4.45101L85.2364 13.9528C85.5623 14.0781 85.8434 14.2978 86.0437 14.5838C86.244 14.8698 86.3545 15.2091 86.3609 15.5582C86.3674 15.9073 86.2695 16.2504 86.0799 16.5436C85.8903 16.8368 85.6175 17.0667 85.2964 17.204L60.5852 27.7709C60.367 27.8638 60.1322 27.9116 59.8951 27.9114Z" fill="#FF6363"/>
<path d="M45.2769 36.7653C46.569 36.7653 47.6165 35.7178 47.6165 34.4257C47.6165 33.1336 46.569 32.0861 45.2769 32.0861C43.9847 32.0861 42.9373 33.1336 42.9373 34.4257C42.9373 35.7178 43.9847 36.7653 45.2769 36.7653Z" fill="#3F3D56"/>
<path opacity="0.2" d="M85.3818 15.7041L60.6705 26.271C60.4778 26.3534 60.2706 26.3961 60.061 26.3966C59.8515 26.3971 59.6441 26.3554 59.451 26.274L34.4048 15.7072C34.0902 15.5777 33.8278 15.347 33.659 15.0517C33.5486 15.2432 33.4801 15.456 33.4582 15.676C33.4363 15.896 33.4615 16.1181 33.532 16.3276C33.6026 16.5371 33.7169 16.7292 33.8673 16.8912C34.0178 17.0531 34.201 17.1812 34.4048 17.2669L59.451 27.8337C59.6441 27.9151 59.8515 27.9569 60.061 27.9563C60.2706 27.9558 60.4778 27.9131 60.6705 27.8307L85.3818 17.2638C85.5845 17.1774 85.7666 17.0489 85.9161 16.8869C86.0655 16.7248 86.1788 16.533 86.2487 16.3239C86.3185 16.1148 86.3432 15.8933 86.3211 15.674C86.299 15.4547 86.2306 15.2426 86.1205 15.0517C85.9529 15.3446 85.6932 15.574 85.3818 15.7041Z" fill="black"/>
<path d="M45.4735 34.4165C45.5769 34.4165 45.6761 34.3755 45.7492 34.3023C45.8223 34.2292 45.8634 34.13 45.8634 34.0266V20.9789L58.7239 16.2938C58.8273 16.2953 58.9271 16.2557 59.0013 16.1837C59.0755 16.1116 59.1181 16.013 59.1196 15.9096C59.1212 15.8062 59.0816 15.7064 59.0095 15.6322C58.9375 15.558 58.8389 15.5154 58.7355 15.5139L45.875 20.199C45.7715 20.1966 45.6686 20.2153 45.5726 20.2538C45.4765 20.2924 45.3892 20.35 45.3161 20.4233C45.2422 20.4957 45.1835 20.5821 45.1436 20.6775C45.1036 20.773 45.0832 20.8754 45.0835 20.9789V34.0266C45.0835 34.13 45.1246 34.2292 45.1977 34.3023C45.2709 34.3755 45.37 34.4165 45.4735 34.4165Z" fill="#3F3D56"/>
</g>
<defs>
<clipPath id="clip0_11_0">
<rect width="290.111" height="210.286" fill="white"/>
</clipPath>
</defs>
</svg>
